# xmcd CD database file
#
# Track frame offsets:
#	150
#	5638
#	20488
#	33379
#	46809
#	64638
#	79443
#	96976
#	112270
#	131082
#	147702
#	163319
#	180440
#	197637
#	213579
#	228522
#	247007
#	265128
#	278984
#	293751
#	309785
#	325082
#
# Disc length: 4552 seconds
#
# Revision: 0
# Processed by: cddbd v1.5.2PL0 Copyright (c) Steve Scherf et al.
# Submitted via: CDex 1.70beta2
#
DISCID=4d11c616
DTITLE=Guitar Center - King Of The Blues I
DYEAR=2006
DGENRE=Blues
TTITLE0=Tune Up
TTITLE1=East Coast Blues
TTITLE2=Texas Blues
TTITLE3=Groovin' Blues
TTITLE4=Laid Down Blues
TTITLE5=Stone Blues
TTITLE6=Modern Blues
TTITLE7=Classic Stop-Time Blues
TTITLE8=Big Band Blues
TTITLE9=Second Line  Blues
TTITLE10=Rockin' Blues with Back-Beat
TTITLE11=50's Rock 'n Roll
TTITLE12=Train-Beat Blues
TTITLE13=Chicago Blues
TTITLE14=Funky Rock Blues
TTITLE15=Jazz Swing Blues
TTITLE16=Funky Mambo
TTITLE17=Cool Shuffle Blues
TTITLE18=Minor Baby Blues
TTITLE19=Slow Shuffle Blues
TTITLE20=16th Note Swing Funky  Blues
TTITLE21=Slow Minor Blues
EXTD=YEAR: 2006
EXTT0=
EXTT1=
EXTT2=
EXTT3=
EXTT4=
EXTT5=
EXTT6=
EXTT7=
EXTT8=
EXTT9=
EXTT10=
EXTT11=
EXTT12=
EXTT13=
EXTT14=
EXTT15=
EXTT16=
EXTT17=
EXTT18=
EXTT19=
EXTT20=
EXTT21=
PLAYORDER=
